<svg height="512" viewBox="0 0 512 512" width="512" xmlns="http://www.w3.org/2000/svg"><g id="Filled_outline" data-name="Filled outline"><path d="m312.011 352a7.992 7.992 0 0 1 -7.164-4.422l-48.847-97.691-48.844 97.691a8 8 0 1 1 -14.312-7.156l56-112c2.719-5.422 11.594-5.422 14.312 0l56 112a8 8 0 0 1 -7.145 11.578z" fill="#95573a"/><path d="m136.011 352a7.992 7.992 0 0 1 -7.164-4.422l-48.847-97.691-48.841 97.691a8 8 0 1 1 -14.312-7.156l56-112c2.719-5.422 11.594-5.422 14.312 0l56 112a8 8 0 0 1 -7.148 11.578z" fill="#95573a"/><path d="m216 456a32 32 0 0 0 -32-32h-32a32 32 0 0 0 -32 32 32 32 0 0 0 -32 32h160a32 32 0 0 0 -32-32z" fill="#ffb531"/><path d="m216 456a32 32 0 0 0 -32-32h-32a31.727 31.727 0 0 0 -8 1.131 31.926 31.926 0 0 1 24 30.869 32 32 0 0 1 32 32h48a32 32 0 0 0 -32-32z" fill="#ffa912"/><path d="m16 344h128a0 0 0 0 1 0 0 32 32 0 0 1 -32 32h-64a32 32 0 0 1 -32-32 0 0 0 0 1 0 0z" fill="#ffb531"/><path d="m112 344c0 17.673-22.327 32-40 32h40a32 32 0 0 0 32-32z" fill="#ffa912"/><path d="m168 239.969a51.807 51.807 0 0 1 -21.406-4.578l-18.047-8.219a36.176 36.176 0 0 0 -31.758 1.1 51.94 51.94 0 0 1 -39.766 4l-3.351-1.016 4.656-15.313 3.344 1.016a35.8 35.8 0 0 0 27.445-2.723 51.819 51.819 0 0 1 46.063-1.625l18.047 8.219a36.086 36.086 0 0 0 29.554 0l18.032-8.219a51.8 51.8 0 0 1 46.07 1.625 35.818 35.818 0 0 0 27.453 2.723l3.336-1.016 4.656 15.313-3.344 1.016a51.94 51.94 0 0 1 -39.773-4 36.191 36.191 0 0 0 -31.766-1.1l-18.031 8.219a51.843 51.843 0 0 1 -21.414 4.578z" fill="#f7a116"/><path d="m192 208a24 24 0 1 0 -40 17.771v198.229h32v-198.229a23.849 23.849 0 0 0 8-17.771z" fill="#ffb531"/><rect fill="#f7a116" height="16" rx="8" width="112" x="112.003" y="448"/><path d="m296 264v-56h80v56l24 24-64 168-64-168z" fill="#fec9a3"/><path d="m400 288-64 168-64-168 24-24 40 40 40-40z" fill="#bfbfbd"/><path d="m272 288 64 168 64-168-24-24-40 40-40-40z" fill="#bfbfbd"/><path d="m352 288v168h-32v-168l16 16z" fill="#95573a"/><path d="m352 383.25v72.75h-32v-44.37c10.91-8.9 21.58-18.3 32-28.38z" fill="#8f4d2e"/><path d="m336 304-40.09 46.77-23.91-62.77 24-24z" fill="#e0e0de"/><path d="m400 288-23.91 62.77-40.09-46.77 40-40z" fill="#e0e0de"/><path d="m376 243.859v-19.859h-80v19.859a71.963 71.963 0 0 0 80 0z" fill="#feb784"/><path d="m408 109.586h8a24 24 0 0 1 24 24 24 24 0 0 1 -24 24h-8a0 0 0 0 1 0 0v-48a0 0 0 0 1 0 0z" fill="#feb784"/><path d="m264 109.586h-8a24.071 24.071 0 0 0 -24 24 24.071 24.071 0 0 0 24 24h8.48" fill="#feb784"/><path d="m408 104v64a72 72 0 1 1 -144 0v-64a72.006 72.006 0 0 1 72-72c.2 0 .4 0 .6.01a71.993 71.993 0 0 1 71.4 71.99z" fill="#fec9a3"/><path d="m408 104v64a72.039 72.039 0 0 1 -95.71 68 88.026 88.026 0 0 0 61.71-84v-48a88.031 88.031 0 0 0 -37.4-71.99 71.993 71.993 0 0 1 71.4 71.99z" fill="#fec093"/><circle cx="300" cy="124" fill="#7a432a" r="12"/><circle cx="372" cy="124" fill="#7a432a" r="12"/><path d="m408 77.59v32a194.348 194.348 0 0 1 -29.08-48h-.01a120.136 120.136 0 0 1 -13.62 4.19 122.4 122.4 0 0 1 -29.29 3.55 122.749 122.749 0 0 1 -42.91-7.74 194.682 194.682 0 0 1 -29.09 48v-32a54.761 54.761 0 0 1 6.7-26.59 43.1 43.1 0 0 1 17.3-17.39 124.343 124.343 0 0 1 35.95-9.02q6.015-.6 12.05-.59a124.6 124.6 0 0 1 48 9.61c14.12 7.41 24 24.3 24 43.98z" fill="#7a432a"/><path d="m326.891 184h-14.891v-16h14.891c10.951 0 21.549-2.519 29.078-6.91l8.062 13.82c-10.049 5.862-23.238 9.09-37.14 9.09z" fill="#f7a468"/><path d="m488 343.23v152.77h-304v-152.77a39.994 39.994 0 0 1 30.3-38.8l33.7-8.43 24-8 64 168 64-168 24 8 33.7 8.43a39.994 39.994 0 0 1 30.3 38.8z" fill="#3d4d63"/><path d="m488 345.82v150.18h-216.11c73.3-21.25 162.1-64.11 216.11-150.18z" fill="#374559"/><g fill="#22303d"><path d="m328 456h16v40h-16z"/><path d="m296 464h16v16h-16z"/><path d="m232 424h16v72h-16z"/><path d="m424 424h16v72h-16z"/></g><path d="m248 296-8 80h32l-8 32 72 48-64-168z" fill="#4c5d72"/><path d="m424 296 8 80h-32l8 32-72 48 64-168z" fill="#4c5d72"/><path d="m408 77.59v32a194.348 194.348 0 0 1 -29.08-48h-.01a120.136 120.136 0 0 1 -13.62 4.19 88.422 88.422 0 0 0 -41.34-41.19q6.015-.6 12.05-.59a124.6 124.6 0 0 1 48 9.61c14.12 7.41 24 24.3 24 43.98z" fill="#743b20"/><path d="m459.642 296.664-55.32-15.656-20.322-20.322v-28.694a79.9 79.9 0 0 0 32-63.992v-2.414a32 32 0 0 0 0-64v-24c0-22-11.1-42.048-28.283-51.063q-.312-.163-.638-.3a133.54 133.54 0 0 0 -102.158 0q-.325.135-.638.3c-17.183 9.017-28.283 29.061-28.283 51.065v24a32 32 0 1 0 0 64v2.412a79.868 79.868 0 0 0 17.011 49.32 35.751 35.751 0 0 1 -26.136-3.091 51.935 51.935 0 0 0 -46.051-1.62l-1.265.577a31.359 31.359 0 0 0 .441-5.186 32 32 0 0 0 -64 0 31.359 31.359 0 0 0 .441 5.186l-1.266-.577a51.772 51.772 0 0 0 -46.055 1.623 36.11 36.11 0 0 1 -27.462 2.718l-3.349-1.01-4.618 15.32 3.328 1a51.822 51.822 0 0 0 12.81 2.19l-52.984 105.972h.006a7.952 7.952 0 0 0 -.851 3.578 40.045 40.045 0 0 0 40 40h48a40.045 40.045 0 0 0 40-40 7.952 7.952 0 0 0 -.851-3.575h.006l-54.337-108.677a50.221 50.221 0 0 0 7.978-3.477 36.178 36.178 0 0 1 31.749-1.1l15.455 7.038v182.591a40.015 40.015 0 0 0 -31.325 31.876 39.993 39.993 0 0 0 -32.675 39.324 8 8 0 0 0 8 8h104v-152.769a31.954 31.954 0 0 1 24.239-31.044l22.669-5.668-6.868 68.681a8 8 0 0 0 7.96 8.8h21.754l-5.515 22.06a8 8 0 0 0 3.323 8.6l68.438 45.621v35.719h16v-35.719l68.438-45.625a8 8 0 0 0 3.323-8.6l-5.515-22.056h21.754a8 8 0 0 0 7.96-8.8l-6.869-68.685 22.67 5.668a31.954 31.954 0 0 1 24.239 31.048v152.769h16v-152.769a47.931 47.931 0 0 0 -36.358-46.567zm-355.642 71.336h-48a24.042 24.042 0 0 1 -22.629-16h93.258a24.042 24.042 0 0 1 -22.629 16zm-67.056-32 43.056-86.111 43.056 86.111zm198.562-45.123 20.494-40.988 14.266 28.531-2.588 2.588zm92.494 34.749 8-9.333 8 9.333v86.9l-8 21-8-21zm-16 44.9-6.919-18.164 6.919-8.07zm48 0v-26.234l6.919 8.072zm-61.4-35.184-17.277-45.35 14.677-14.678 29.1 29.1zm74.806 0-26.506-30.924 29.1-29.1 14.68 14.68zm-5.406-74.656-32 32-32-32v-19.355a80.108 80.108 0 0 0 64 0zm-80-28.694v28.694l-5.809 5.809-16.02-32.041a51.807 51.807 0 0 0 12.788-2.184l6.872-1.961q1.069.86 2.169 1.683zm144-98.406a16.019 16.019 0 0 1 -16 16v-32a16.019 16.019 0 0 1 16 16zm-160-56c0-15.994 7.611-30.369 19.419-36.736a117.457 117.457 0 0 1 89.162 0c11.808 6.369 19.419 20.744 19.419 36.738v7.267a195.151 195.151 0 0 1 -13.73-26.415 8 8 0 0 0 -10.15-4.347 114.855 114.855 0 0 1 -80.239 0 8 8 0 0 0 -10.15 4.348 195.059 195.059 0 0 1 -13.731 26.415zm-32 56a16.019 16.019 0 0 1 16-16v32a16.019 16.019 0 0 1 -16-16zm32-21.179a200.571 200.571 0 0 0 25.407-40.9 130.866 130.866 0 0 0 77.188 0 200.548 200.548 0 0 0 25.4 40.9v55.593a64 64 0 1 1 -128 0zm-104 79.593a16.019 16.019 0 0 1 16 16 15.78 15.78 0 0 1 -5.354 11.828 8 8 0 0 0 -2.646 5.943v190.229h-16v-190.229a8 8 0 0 0 -2.646-5.943 15.78 15.78 0 0 1 -5.354-11.828 16.019 16.019 0 0 1 16-16zm-32.973 247.027a23.847 23.847 0 0 1 16.973-7.027h24v16h-46.643a23.908 23.908 0 0 1 5.67-8.973zm-37.67 40.973a24.037 24.037 0 0 1 22.643-16h56v16zm94.643-172.557v-73.234l15.455-7.038a35.9 35.9 0 0 1 14.775-3.171 35.477 35.477 0 0 1 16.971 4.269 50.3 50.3 0 0 0 7.979 3.483l-32.118 64.236-2.7.676a47.929 47.929 0 0 0 -20.362 10.779zm81.129 97.028 6.632-26.531a8 8 0 0 0 -7.761-9.94h-23.16l6.6-66.049 11.81-3.936 52.361 137.447zm126.871-36.471a8 8 0 0 0 -7.761 9.94l6.632 26.531-46.486 30.991 52.361-137.447 11.81 3.936 6.604 66.049z"/><path d="m300 136a12 12 0 1 0 -12-12 12.013 12.013 0 0 0 12 12z"/><path d="m372 136a12 12 0 1 0 -12-12 12.013 12.013 0 0 0 12 12z"/><path d="m312 184h14.891c13.9 0 27.091-3.228 37.14-9.09l-8.062-13.82c-7.529 4.391-18.127 6.91-29.078 6.91h-14.891z"/><path d="m296 464h16v16h-16z"/><path d="m232 424h16v72h-16z"/><path d="m424 424h16v72h-16z"/></g></svg>